<svg id="svg" version="1.1" xmlns="http://www.w3.org/2000/svg" xmlns:xlink="http://www.w3.org/1999/xlink" width="400" height="222.96875" viewBox="0, 0, 400,222.96875"><g id="svgg"><path id="path0" d="M70.783 148.892 C 71.054 149.351,71.786 150.130,72.107 150.301 C 72.289 150.399,73.070 151.055,73.844 151.759 C 74.617 152.464,75.458 153.170,75.711 153.329 C 76.734 153.967,78.866 155.938,79.350 156.692 C 79.821 157.427,79.963 157.524,81.013 157.837 C 81.753 158.058,82.422 158.399,82.896 158.798 C 84.878 160.465,85.507 160.891,86.506 161.241 C 87.809 161.697,89.228 162.396,89.947 162.935 C 90.239 163.154,90.591 163.333,90.729 163.333 C 90.867 163.333,91.491 163.514,92.115 163.734 C 92.739 163.955,94.487 164.519,96.000 164.989 C 100.084 166.259,106.237 168.254,109.167 169.260 C 110.587 169.748,112.313 170.313,113.000 170.517 C 113.688 170.721,114.906 171.138,115.708 171.444 C 116.510 171.750,118.122 172.302,119.291 172.670 C 123.197 173.901,123.578 174.032,124.583 174.492 C 125.133 174.744,126.221 175.158,127.000 175.413 C 127.779 175.667,129.617 176.311,131.083 176.844 C 132.550 177.377,134.162 177.937,134.667 178.089 C 135.773 178.422,140.091 179.835,150.083 183.137 C 154.208 184.500,158.071 185.769,158.667 185.956 C 159.262 186.144,160.837 186.669,162.167 187.123 C 164.461 187.906,168.049 189.066,177.083 191.945 C 181.304 193.289,186.125 194.891,193.167 197.288 C 194.404 197.709,197.029 198.593,199.000 199.252 C 200.971 199.910,203.858 200.879,205.417 201.405 C 206.975 201.931,208.775 202.513,209.417 202.698 C 210.058 202.883,212.008 203.526,213.750 204.126 C 215.492 204.727,217.282 205.315,217.728 205.433 C 218.175 205.551,219.937 206.133,221.645 206.727 C 223.353 207.320,225.350 207.994,226.083 208.223 C 227.381 208.629,230.021 209.525,240.167 213.006 C 242.871 213.934,245.571 214.848,246.167 215.039 C 246.762 215.229,248.675 215.894,250.417 216.517 C 252.158 217.140,253.883 217.722,254.250 217.812 C 254.617 217.901,256.379 218.497,258.167 219.137 C 259.954 219.777,263.152 220.870,265.273 221.567 L 269.129 222.833 298.359 222.833 L 327.589 222.833 331.753 218.794 C 336.490 214.200,340.917 209.860,348.487 202.391 C 351.382 199.535,356.562 194.435,359.999 191.058 C 381.431 169.995,400.000 151.221,400.000 150.616 C 400.000 150.288,399.925 149.973,399.833 149.917 C 399.742 149.860,399.667 149.556,399.667 149.240 L 399.667 148.667 235.158 148.667 C 96.947 148.667,70.671 148.703,70.783 148.892 " stroke="none" fill="#e30404" fill-rule="evenodd"></path><path id="path1" d="M46.463 0.397 C 46.098 2.306,46.918 3.302,47.658 1.850 C 48.265 0.660,48.090 0.000,47.168 0.000 C 46.637 0.000,46.527 0.062,46.463 0.397 M35.533 1.200 C 35.244 1.489,35.288 2.340,35.609 2.695 C 35.867 2.980,35.865 3.000,35.579 3.000 C 34.657 3.000,32.500 5.300,32.500 6.284 C 32.500 6.375,32.288 6.742,32.029 7.100 C 31.771 7.457,31.006 8.688,30.329 9.833 C 29.653 10.979,28.778 12.416,28.385 13.027 C 27.991 13.637,27.597 14.312,27.509 14.527 C 27.421 14.741,26.933 15.554,26.426 16.333 C 25.919 17.112,25.344 18.087,25.149 18.500 C 24.953 18.912,24.629 19.475,24.428 19.750 C 24.003 20.331,22.500 22.807,22.500 22.926 C 22.500 22.970,22.011 23.751,21.412 24.661 C 20.814 25.571,20.232 26.526,20.119 26.783 C 20.005 27.040,19.493 27.892,18.980 28.678 C 18.467 29.463,17.913 30.513,17.748 31.011 C 17.412 32.028,16.139 33.977,14.273 36.330 C 13.584 37.199,12.867 38.219,12.678 38.596 C 12.490 38.974,12.163 39.468,11.953 39.695 C 11.162 40.549,10.363 41.624,9.616 42.839 C 9.191 43.529,8.610 44.317,8.323 44.589 C 8.037 44.861,7.656 45.368,7.478 45.716 C 7.299 46.064,6.902 46.626,6.596 46.966 C 5.954 47.678,4.917 49.125,3.546 51.221 C -0.127 56.833,-0.000 56.540,-0.000 59.381 C -0.000 62.475,0.431 63.770,1.631 64.278 C 2.194 64.516,2.500 65.040,2.500 65.766 C 2.500 66.482,3.167 68.201,4.019 69.681 C 4.641 70.760,4.983 71.640,5.415 73.264 C 5.729 74.448,6.327 76.260,6.743 77.290 C 7.159 78.320,7.500 79.246,7.500 79.347 C 7.500 79.556,9.071 82.286,10.274 84.167 C 10.717 84.860,11.947 86.306,13.037 87.414 C 14.116 88.512,15.001 89.450,15.002 89.497 C 15.008 89.778,16.990 91.667,17.278 91.667 C 17.823 91.667,19.631 93.729,20.202 95.000 C 20.782 96.291,22.492 100.483,22.852 101.496 C 23.634 103.698,26.136 105.128,27.646 104.236 C 28.164 103.930,28.264 103.969,32.077 105.972 L 34.237 107.106 34.615 108.678 C 34.823 109.543,34.996 110.625,34.999 111.083 C 35.007 112.490,35.637 115.695,35.979 116.075 C 36.485 116.636,37.167 118.327,37.167 119.020 C 37.167 119.376,37.237 119.667,37.324 119.667 C 37.410 119.667,38.066 120.352,38.782 121.190 C 39.966 122.576,41.706 124.340,43.132 125.599 C 43.553 125.971,43.736 126.326,43.922 127.128 C 44.055 127.703,44.352 128.544,44.582 128.998 C 44.812 129.451,45.000 129.932,45.000 130.065 C 45.000 130.199,45.206 130.469,45.458 130.665 C 47.014 131.878,47.871 132.475,48.329 132.665 C 48.649 132.797,48.977 133.128,49.176 133.518 C 49.582 134.314,49.806 134.430,51.220 134.577 C 52.184 134.678,52.422 134.769,52.785 135.176 C 53.020 135.441,53.559 135.785,53.981 135.941 C 54.404 136.098,55.012 136.486,55.333 136.803 C 55.654 137.120,56.238 137.587,56.631 137.840 C 57.023 138.092,57.664 138.625,58.055 139.025 C 58.445 139.424,59.076 139.995,59.457 140.294 C 59.839 140.594,60.360 141.212,60.617 141.670 C 60.968 142.296,61.227 142.547,61.667 142.690 C 62.715 143.029,63.506 143.503,64.553 144.421 C 66.638 146.248,67.044 146.579,67.909 147.158 C 69.077 147.940,69.635 148.437,70.306 149.292 C 70.705 149.801,70.983 150.000,71.295 150.000 L 71.729 150.000 71.269 149.520 C 71.017 149.256,70.792 148.917,70.770 148.766 C 70.707 148.339,69.184 146.874,68.142 146.238 C 67.625 145.922,67.160 145.555,67.109 145.423 C 67.058 145.291,66.694 144.975,66.300 144.721 C 65.906 144.467,65.152 143.868,64.625 143.389 C 64.017 142.836,63.317 142.390,62.709 142.168 C 61.867 141.861,61.679 141.704,61.167 140.887 C 60.846 140.375,60.199 139.670,59.728 139.321 C 59.258 138.971,58.658 138.428,58.395 138.114 C 58.132 137.800,57.661 137.413,57.349 137.254 C 57.036 137.094,56.430 136.636,56.001 136.235 C 55.573 135.834,54.928 135.385,54.569 135.238 C 54.210 135.090,53.680 134.743,53.390 134.467 C 52.944 134.041,52.658 133.937,51.517 133.786 C 50.483 133.649,50.149 133.541,50.078 133.318 C 49.902 132.762,49.296 132.153,48.525 131.758 C 46.387 130.660,45.047 128.902,44.728 126.773 C 44.625 126.089,44.086 125.000,43.850 125.000 C 43.163 125.000,38.167 119.322,38.167 118.541 C 38.167 118.219,38.029 117.838,37.837 117.633 C 37.656 117.438,37.420 117.010,37.312 116.681 C 37.204 116.352,36.952 115.858,36.752 115.583 C 36.408 115.111,36.132 113.694,35.747 110.417 C 35.371 107.218,35.068 106.552,33.678 105.864 C 33.168 105.611,31.724 104.864,30.469 104.202 C 28.010 102.906,27.651 102.811,27.271 103.354 C 26.979 103.770,26.205 103.696,25.135 103.151 C 24.344 102.747,24.142 102.435,23.349 100.396 C 21.050 94.481,20.928 94.232,19.377 92.285 C 18.722 91.462,18.336 91.126,17.966 91.052 C 17.670 90.992,17.203 90.670,16.853 90.285 C 16.521 89.919,15.252 88.561,14.032 87.268 C 10.907 83.956,9.110 81.110,7.568 77.033 C 7.072 75.721,6.667 74.615,6.667 74.574 C 6.667 74.533,94.454 74.500,201.750 74.500 L 396.833 74.500 396.834 75.208 C 396.834 75.598,396.910 79.029,397.003 82.833 C 397.752 113.521,398.021 123.062,398.165 124.000 C 398.257 124.596,398.518 129.396,398.747 134.667 C 399.329 148.087,399.361 148.667,399.522 148.667 C 399.602 148.667,399.667 148.925,399.667 149.240 C 399.667 149.556,399.742 149.860,399.833 149.917 C 400.082 150.070,400.041 143.652,399.755 137.583 C 399.622 134.742,399.428 130.504,399.326 128.167 C 399.223 125.829,399.075 123.754,398.996 123.554 C 398.843 123.168,397.617 75.548,397.315 58.250 L 397.134 47.917 396.067 43.919 C 395.480 41.721,395.000 39.779,395.000 39.603 C 395.000 39.427,394.476 37.321,393.835 34.922 C 393.194 32.523,392.593 30.153,392.500 29.655 C 392.407 29.157,391.833 26.875,391.225 24.583 C 390.617 22.292,390.037 19.892,389.935 19.250 L 389.750 18.083 388.667 17.996 C 387.845 17.931,387.220 17.734,386.083 17.184 C 384.184 16.265,383.237 15.938,381.209 15.502 C 380.315 15.310,379.096 14.923,378.500 14.642 C 377.904 14.361,376.941 13.993,376.359 13.823 C 375.778 13.653,374.959 13.348,374.540 13.145 C 373.498 12.641,372.141 12.681,370.057 13.276 C 368.625 13.685,368.118 13.746,366.065 13.758 L 363.713 13.771 362.315 14.594 L 360.917 15.417 358.711 15.372 C 357.033 15.337,356.360 15.387,355.899 15.580 C 355.565 15.719,355.058 15.834,354.771 15.834 C 353.315 15.837,352.336 16.528,351.333 18.261 C 350.545 19.621,350.397 19.702,348.374 19.869 C 345.396 20.114,345.298 20.145,344.936 20.945 C 344.763 21.327,344.491 21.674,344.332 21.715 C 344.173 21.757,343.617 22.307,343.097 22.937 C 341.600 24.753,341.226 24.885,337.669 24.855 C 336.003 24.841,334.500 24.907,334.167 25.008 C 333.630 25.172,331.305 25.552,329.500 25.771 C 328.952 25.838,328.397 25.747,327.437 25.431 C 325.836 24.905,325.877 24.906,324.014 25.404 C 322.429 25.828,321.592 25.811,319.917 25.323 C 318.507 24.911,317.312 25.229,314.506 26.761 C 313.122 27.517,311.143 27.104,309.639 25.745 C 309.009 25.175,307.368 24.333,306.889 24.333 C 306.536 24.333,305.307 23.683,304.833 23.245 C 304.431 22.872,304.143 22.745,302.167 22.065 C 301.099 21.698,299.161 21.669,298.000 22.003 C 297.587 22.122,296.387 22.231,295.333 22.245 C 293.246 22.274,291.643 22.787,289.583 24.088 C 289.125 24.378,288.000 24.973,287.083 25.410 C 286.167 25.847,285.229 26.378,285.000 26.590 C 284.358 27.184,282.361 28.118,281.258 28.339 C 279.682 28.655,279.296 28.915,278.508 30.192 C 277.866 31.232,277.677 31.408,276.634 31.933 C 275.641 32.433,275.428 32.621,275.157 33.234 C 274.911 33.789,274.660 34.040,274.045 34.350 C 273.608 34.569,273.005 34.972,272.704 35.244 C 272.231 35.674,272.004 35.748,270.992 35.805 C 269.856 35.870,269.803 35.893,268.985 36.681 C 268.209 37.429,267.385 37.830,266.617 37.832 C 266.453 37.833,266.130 38.021,265.900 38.251 C 265.671 38.481,265.179 38.737,264.809 38.820 C 264.438 38.904,263.968 39.128,263.765 39.319 C 263.562 39.510,263.236 39.667,263.042 39.667 C 262.327 39.667,261.840 40.005,261.268 40.900 C 260.777 41.668,260.567 41.847,259.966 42.010 C 258.719 42.348,258.315 42.540,257.338 43.260 C 253.961 45.746,252.538 46.644,251.500 46.946 C 250.642 47.196,249.355 47.954,248.000 49.008 C 247.075 49.728,245.849 50.016,244.239 49.892 C 243.035 49.800,242.796 49.829,242.307 50.127 C 242.001 50.314,241.235 50.546,240.606 50.642 C 239.843 50.759,239.149 51.002,238.522 51.370 C 235.657 53.058,233.755 53.503,231.837 52.933 C 231.343 52.787,230.470 52.667,229.897 52.667 C 228.066 52.667,226.348 51.409,224.125 48.441 C 222.882 46.781,220.016 46.324,217.147 47.328 C 214.060 48.408,213.802 48.399,208.333 46.999 C 207.279 46.729,206.246 46.507,206.038 46.504 C 205.830 46.502,205.340 46.205,204.949 45.845 C 204.391 45.331,203.992 45.133,203.083 44.923 C 202.011 44.674,199.979 43.703,199.747 43.329 C 199.561 43.027,198.355 43.145,198.000 43.500 C 197.591 43.909,197.501 43.916,197.497 43.542 C 197.495 43.371,196.908 42.817,196.084 42.208 L 194.674 41.167 193.245 41.167 C 191.395 41.167,190.965 41.385,190.370 42.628 C 189.940 43.528,189.862 43.596,188.844 43.981 C 188.079 44.270,187.506 44.645,186.844 45.289 C 186.261 45.857,185.561 46.338,184.957 46.585 C 184.430 46.801,183.801 47.133,183.560 47.322 C 183.226 47.584,182.878 47.667,182.103 47.669 C 180.436 47.673,179.943 48.036,178.739 50.146 C 178.549 50.478,178.249 50.773,178.072 50.801 C 177.369 50.912,176.897 51.214,176.478 51.817 C 176.105 52.354,175.920 52.466,175.248 52.558 C 174.574 52.650,174.331 52.797,173.603 53.555 L 172.749 54.444 171.333 54.554 C 169.094 54.729,167.646 54.686,166.610 54.417 C 164.830 53.953,164.267 54.100,163.242 55.297 C 162.907 55.688,162.397 56.130,162.108 56.277 C 161.187 56.748,160.331 57.519,159.994 58.179 C 159.535 59.079,159.088 59.443,158.288 59.571 C 157.200 59.745,156.306 60.221,155.574 61.016 C 154.159 62.552,153.513 62.905,151.298 63.347 C 148.801 63.845,147.938 64.283,146.833 65.614 C 145.847 66.802,144.983 67.324,143.992 67.330 C 143.115 67.335,142.540 68.288,143.250 68.560 C 144.096 68.885,143.089 69.225,140.500 69.490 C 137.495 69.797,136.418 69.670,133.961 68.717 C 129.758 67.086,125.799 67.040,122.167 68.578 C 118.209 70.254,116.661 70.623,115.188 70.241 C 114.234 69.993,110.036 69.500,108.884 69.500 C 108.314 69.500,107.801 69.632,107.266 69.917 C 106.251 70.456,105.559 70.442,104.195 69.854 C 103.583 69.590,102.633 69.325,102.083 69.264 C 100.583 69.099,98.960 68.219,97.219 66.628 C 96.411 65.890,95.150 64.831,94.417 64.274 C 93.683 63.717,92.696 62.959,92.222 62.589 C 90.719 61.415,89.951 60.902,88.591 60.161 C 87.630 59.638,86.736 58.931,85.341 57.589 C 83.068 55.404,82.405 54.892,81.310 54.476 C 79.712 53.869,78.723 53.151,76.560 51.031 C 75.355 49.850,73.549 48.240,72.546 47.453 C 71.519 46.647,70.324 45.526,69.809 44.886 C 69.307 44.261,68.303 43.000,67.579 42.083 C 66.183 40.318,63.158 37.167,62.859 37.167 C 62.512 37.167,60.000 34.292,60.000 33.895 C 60.000 33.781,59.649 33.177,59.219 32.552 C 58.363 31.308,56.342 27.453,55.997 26.408 C 55.878 26.046,55.541 25.401,55.247 24.974 C 54.954 24.548,54.626 23.835,54.518 23.391 C 54.134 21.804,54.050 21.700,52.602 21.007 C 50.979 20.229,50.332 19.590,49.779 18.217 C 49.145 16.642,49.112 16.324,49.490 15.490 C 49.913 14.559,49.920 13.811,49.515 12.747 C 49.231 12.000,49.222 11.852,49.432 11.353 C 49.750 10.598,49.728 10.290,49.321 9.772 C 48.803 9.114,47.667 9.357,47.667 10.125 C 47.667 10.406,46.819 9.928,46.246 9.325 C 45.441 8.479,45.012 8.334,43.445 8.377 C 41.803 8.423,41.250 8.105,41.076 7.015 C 40.891 5.855,40.822 5.655,40.486 5.320 C 40.256 5.090,39.978 4.998,39.619 5.032 C 39.022 5.090,38.803 4.777,38.137 2.919 C 37.560 1.307,36.275 0.459,35.533 1.200 M47.329 4.109 C 46.010 4.991,45.787 5.500,46.241 6.589 C 46.538 7.299,46.820 7.314,47.564 6.662 C 49.036 5.369,48.828 3.106,47.329 4.109 M53.708 4.192 C 53.429 4.471,53.445 5.195,53.739 5.593 C 54.142 6.139,54.917 5.564,54.917 4.719 C 54.917 4.031,54.187 3.713,53.708 4.192 M41.625 4.789 C 40.564 5.224,40.812 6.000,42.012 6.000 C 43.061 6.000,43.514 5.372,42.905 4.762 C 42.593 4.450,42.444 4.453,41.625 4.789 M54.839 6.656 C 54.360 7.551,54.859 8.500,55.809 8.500 C 56.578 8.500,56.833 8.263,56.833 7.550 C 56.833 6.501,55.292 5.810,54.839 6.656 M284.224 19.742 C 283.534 20.432,283.527 20.609,284.180 20.753 C 285.126 20.961,286.065 19.520,285.141 19.278 C 284.881 19.210,284.629 19.337,284.224 19.742 M281.726 31.833 C 282.996 43.807,282.856 56.609,281.413 60.443 C 280.320 63.346,277.924 65.444,274.601 66.407 C 267.168 68.561,265.293 66.104,271.882 62.845 C 274.870 61.366,277.590 58.849,278.361 56.849 C 279.181 54.723,278.952 47.451,277.738 37.000 C 277.509 35.029,277.305 33.237,277.286 33.018 C 277.260 32.728,277.387 32.542,277.750 32.338 C 278.232 32.068,278.887 31.283,279.583 30.141 C 279.907 29.609,281.092 29.056,281.360 29.312 C 281.420 29.370,281.585 30.504,281.726 31.833 M270.746 37.893 C 271.071 38.744,271.700 39.775,272.800 41.261 C 278.044 48.344,278.710 49.827,278.446 53.833 C 278.248 56.842,277.934 56.943,276.508 54.457 C 275.917 53.426,274.680 51.390,273.758 49.932 L 272.083 47.280 272.000 50.186 L 271.917 53.092 271.225 54.255 C 270.538 55.411,268.768 57.454,268.380 57.539 C 268.226 57.573,268.159 56.412,268.101 52.667 C 268.059 49.962,267.898 46.175,267.743 44.250 L 267.462 40.750 266.881 39.954 C 266.200 39.024,266.289 38.770,267.354 38.599 C 268.267 38.453,268.789 38.159,269.575 37.347 C 269.938 36.973,270.244 36.667,270.256 36.667 C 270.269 36.667,270.489 37.219,270.746 37.893 M263.878 44.000 C 264.267 54.413,263.619 57.300,260.424 59.368 C 257.718 61.120,255.070 60.463,252.042 57.287 C 250.018 55.165,249.043 55.945,247.926 60.581 C 246.990 64.463,246.167 65.854,244.510 66.350 C 242.649 66.908,239.627 64.695,238.229 61.750 C 236.428 57.956,236.770 52.333,238.801 52.333 C 238.885 52.333,238.995 53.140,239.048 54.125 C 239.291 58.730,241.354 62.030,243.363 61.027 C 244.037 60.690,244.493 59.886,245.778 56.769 C 248.923 49.141,251.012 47.836,253.715 51.812 C 255.391 54.278,255.973 54.833,256.880 54.833 C 259.026 54.833,260.001 51.699,259.587 46.130 C 259.344 42.856,259.306 43.085,260.127 42.834 C 261.160 42.518,261.516 42.286,261.784 41.756 C 262.235 40.861,262.691 40.480,263.245 40.534 L 263.750 40.583 263.878 44.000 M195.625 42.960 C 196.562 43.701,196.833 44.012,196.833 44.343 C 196.833 45.079,197.200 45.392,198.081 45.405 C 199.067 45.420,199.415 45.050,198.925 44.509 C 198.753 44.319,198.662 44.115,198.723 44.055 C 198.922 43.856,199.634 44.303,199.608 44.610 C 199.589 44.838,199.742 44.932,200.250 45.006 C 200.617 45.059,201.351 45.267,201.881 45.468 C 202.412 45.669,203.013 45.833,203.218 45.833 C 203.422 45.833,203.954 46.134,204.399 46.502 C 204.844 46.870,205.405 47.207,205.646 47.252 C 206.357 47.383,208.633 47.956,210.333 48.431 C 211.395 48.728,212.369 48.880,213.291 48.895 C 214.047 48.907,214.662 48.954,214.657 49.000 C 214.652 49.046,214.517 49.676,214.357 50.401 L 214.066 51.718 213.325 51.944 C 210.320 52.857,207.013 53.522,202.697 54.079 C 199.648 54.473,199.438 54.524,198.732 55.031 C 196.396 56.708,196.988 58.327,200.582 60.087 C 202.457 61.005,202.840 61.535,202.502 62.742 C 202.157 63.975,201.680 64.410,200.730 64.360 C 194.432 64.027,188.529 61.105,186.309 57.222 C 185.433 55.690,185.054 55.672,183.897 57.111 C 180.077 61.862,177.955 63.744,174.596 65.356 C 170.468 67.336,165.691 65.731,164.394 61.927 C 164.038 60.881,164.147 60.878,161.388 62.017 C 155.340 64.516,150.413 65.985,149.879 65.450 C 149.345 64.916,150.116 64.403,151.949 64.073 C 153.759 63.747,154.882 63.117,156.200 61.687 C 156.851 60.980,157.142 60.805,158.189 60.493 C 159.644 60.060,159.899 59.899,160.456 59.056 C 161.130 58.038,161.694 57.498,162.519 57.077 C 162.942 56.861,163.612 56.297,164.008 55.824 C 164.814 54.861,165.095 54.822,167.120 55.398 C 167.819 55.597,168.377 55.616,169.953 55.497 C 172.492 55.306,172.497 55.340,170.197 56.926 C 168.323 58.218,168.252 58.289,168.295 58.821 C 168.456 60.798,171.115 61.478,173.698 60.204 C 177.607 58.274,182.993 51.966,182.998 49.310 C 183.000 48.631,183.049 48.524,183.404 48.435 C 183.626 48.379,184.033 48.144,184.308 47.913 C 184.583 47.681,185.160 47.386,185.591 47.256 C 186.160 47.085,186.637 46.752,187.334 46.040 C 188.058 45.300,188.541 44.969,189.303 44.691 C 190.359 44.306,191.167 43.568,191.167 42.987 C 191.167 42.287,191.739 42.000,193.125 42.002 L 194.417 42.005 195.625 42.960 M257.832 45.403 C 258.099 47.556,257.409 50.115,256.381 50.789 C 255.672 51.253,255.451 50.753,255.587 48.991 C 255.662 48.013,255.629 47.332,255.481 46.824 C 255.362 46.417,255.261 46.029,255.257 45.962 C 255.248 45.811,257.538 44.149,257.630 44.241 C 257.666 44.277,257.757 44.800,257.832 45.403 M220.721 47.779 L 221.526 47.878 221.471 51.827 L 221.417 55.777 220.685 57.253 C 219.717 59.206,217.917 60.972,217.411 60.466 C 217.370 60.425,217.392 57.625,217.460 54.242 L 217.583 48.092 218.333 47.799 C 218.746 47.638,219.271 47.546,219.500 47.594 C 219.729 47.641,220.279 47.725,220.721 47.779 M188.721 49.076 C 186.278 50.139,190.111 57.151,193.260 57.381 L 193.750 57.417 193.833 55.667 C 193.947 53.270,194.304 52.767,196.493 51.908 C 197.848 51.376,198.078 51.166,197.933 50.589 C 197.757 49.887,197.065 49.685,193.883 49.407 C 192.252 49.265,190.617 49.079,190.250 48.995 C 189.399 48.799,189.353 48.801,188.721 49.076 M244.317 50.819 C 245.374 51.489,242.326 58.710,241.159 58.300 C 241.080 58.273,240.987 56.729,240.953 54.871 L 240.890 51.492 241.320 51.403 C 241.556 51.354,242.050 51.173,242.417 51.001 C 243.139 50.661,243.945 50.584,244.317 50.819 M235.328 54.125 C 235.315 54.822,234.106 57.516,232.896 59.548 C 229.026 66.042,222.754 68.878,220.165 65.305 C 219.342 64.168,219.419 64.045,221.633 62.965 C 225.157 61.244,231.180 56.326,231.937 54.548 C 232.165 54.016,232.171 54.013,233.541 53.957 C 234.298 53.926,235.010 53.886,235.125 53.867 C 235.240 53.849,235.331 53.965,235.328 54.125 M209.664 57.464 C 210.003 57.739,210.017 57.818,209.839 58.480 C 209.248 60.672,209.849 61.492,211.387 60.593 C 211.993 60.239,213.658 59.838,214.542 59.835 C 214.988 59.833,215.500 60.444,215.500 60.980 C 215.500 61.564,215.321 61.707,214.250 61.975 C 213.792 62.090,212.495 62.555,211.369 63.008 C 208.467 64.178,207.663 63.972,207.907 62.125 C 208.069 60.899,207.849 60.639,206.706 60.700 C 204.939 60.794,205.173 59.581,207.219 58.039 C 208.501 57.072,209.027 56.949,209.664 57.464 M266.896 59.492 C 267.620 59.767,267.693 60.160,267.218 61.211 C 266.644 62.480,266.742 62.667,267.989 62.667 C 269.481 62.667,269.759 63.604,268.527 64.481 C 264.857 67.094,261.127 66.698,263.995 64.000 C 265.446 62.635,265.439 62.313,263.937 61.284 C 262.329 60.182,264.790 58.692,266.896 59.492 M197.767 100.295 C 196.499 104.212,195.362 107.660,195.240 107.957 L 195.018 108.497 187.081 108.540 L 179.144 108.583 181.447 110.238 C 182.714 111.148,184.688 112.578,185.833 113.416 C 186.979 114.253,188.779 115.564,189.833 116.327 C 190.887 117.091,191.809 117.767,191.880 117.830 C 192.004 117.938,189.599 125.629,187.821 130.811 L 186.999 133.205 187.458 132.905 C 187.710 132.741,189.304 131.594,191.000 130.357 C 196.705 126.197,199.998 123.833,200.090 123.833 C 200.141 123.833,201.247 124.608,202.549 125.554 C 203.851 126.500,206.701 128.572,208.881 130.159 C 211.062 131.745,212.877 133.012,212.915 132.974 C 212.952 132.937,211.900 129.582,210.575 125.520 C 207.742 116.833,207.942 118.056,209.208 117.142 C 211.123 115.761,213.893 113.747,216.417 111.903 C 217.792 110.899,219.397 109.741,219.983 109.330 L 221.050 108.583 213.058 108.540 L 205.065 108.497 204.209 105.873 C 203.739 104.431,202.616 100.983,201.713 98.212 L 200.073 93.173 197.767 100.295 " stroke="none" fill="#04671b" fill-rule="evenodd"></path><path id="path2" d="M280.384 29.579 C 280.021 29.736,279.719 30.071,279.436 30.628 C 279.057 31.376,278.323 32.159,277.602 32.583 C 277.337 32.739,277.346 32.967,277.733 36.083 C 278.494 42.210,278.977 48.267,279.041 52.500 C 279.089 55.674,278.854 56.581,277.538 58.308 C 275.533 60.940,275.014 61.386,272.445 62.686 C 268.399 64.734,267.321 65.821,268.333 66.833 C 268.767 67.267,269.706 67.268,272.213 66.840 C 278.543 65.758,281.468 62.618,282.330 55.984 C 282.962 51.109,281.956 29.645,281.083 29.395 C 280.992 29.369,280.677 29.451,280.384 29.579 M269.607 37.430 C 268.994 38.199,268.274 38.630,267.378 38.764 C 266.431 38.907,266.386 39.037,266.995 39.885 C 267.706 40.875,267.991 43.855,268.116 51.625 C 268.168 54.856,268.265 57.500,268.331 57.500 C 268.525 57.500,270.051 55.820,270.645 54.953 C 271.785 53.287,271.902 52.842,271.997 49.836 L 272.083 47.088 273.103 48.669 C 274.415 50.702,276.274 53.767,277.084 55.229 L 277.719 56.375 277.984 55.896 C 278.328 55.276,278.355 50.646,278.021 49.511 C 277.902 49.105,277.240 47.905,276.550 46.845 C 275.295 44.915,274.723 44.102,272.319 40.833 C 271.456 39.659,270.904 38.713,270.642 37.958 C 270.185 36.644,270.220 36.662,269.607 37.430 M262.470 40.958 C 262.333 41.119,262.059 41.522,261.859 41.855 C 261.660 42.188,261.273 42.545,260.999 42.647 C 259.287 43.287,259.448 43.119,259.555 44.154 C 260.265 50.961,259.282 55.001,256.917 54.998 C 255.981 54.997,255.040 54.078,253.378 51.540 C 251.072 48.018,249.123 49.348,245.993 56.583 C 244.088 60.985,243.844 61.333,242.669 61.333 C 240.762 61.333,238.833 57.442,238.833 53.596 L 238.833 52.345 238.254 52.686 C 237.532 53.113,237.346 53.692,237.218 55.923 C 236.987 59.955,238.674 63.609,241.612 65.440 C 244.876 67.475,246.636 66.004,247.921 60.167 C 248.873 55.839,250.054 55.006,252.136 57.193 C 255.115 60.323,257.812 61.005,260.379 59.276 C 263.453 57.206,263.970 54.989,263.720 44.958 L 263.613 40.667 263.166 40.667 C 262.920 40.667,262.607 40.798,262.470 40.958 M191.759 42.356 C 191.525 42.540,191.333 42.825,191.333 42.990 C 191.333 43.543,190.613 44.210,189.428 44.756 C 188.660 45.109,187.928 45.618,187.326 46.217 C 186.705 46.834,186.179 47.195,185.723 47.318 C 185.350 47.419,184.766 47.723,184.424 47.994 C 184.083 48.265,183.669 48.530,183.504 48.582 C 183.283 48.652,183.173 48.924,183.086 49.616 C 182.643 53.164,175.494 60.498,172.061 60.927 C 170.639 61.104,169.556 60.944,169.062 60.482 C 168.122 59.604,167.875 58.387,168.542 57.920 C 168.748 57.775,169.574 57.198,170.378 56.637 C 171.182 56.076,171.819 55.600,171.795 55.579 C 171.770 55.558,170.879 55.609,169.814 55.693 C 167.974 55.837,167.815 55.824,166.578 55.420 C 165.040 54.918,164.884 54.950,164.083 55.928 C 163.746 56.340,163.106 56.861,162.662 57.086 C 162.213 57.313,161.572 57.846,161.219 58.285 C 159.872 59.957,159.466 60.280,158.245 60.643 C 157.285 60.929,156.935 61.139,156.249 61.836 C 154.752 63.357,153.955 63.794,151.998 64.166 C 150.308 64.487,149.734 64.780,149.886 65.243 C 150.125 65.973,156.301 64.104,162.473 61.434 C 164.175 60.698,164.097 60.697,164.343 61.458 C 165.106 63.818,166.817 65.315,169.457 65.935 C 173.353 66.851,178.269 63.967,183.062 57.953 C 185.072 55.431,185.458 55.326,186.369 57.051 C 188.302 60.716,193.996 63.662,200.285 64.253 L 201.487 64.366 201.993 63.567 C 203.027 61.937,202.669 61.264,200.059 59.930 C 197.433 58.588,196.790 57.644,197.528 56.211 C 198.217 54.871,199.068 54.439,201.687 54.096 C 204.488 53.730,210.134 52.741,211.292 52.414 C 211.773 52.278,212.564 52.053,213.050 51.914 L 213.934 51.662 214.135 50.706 C 214.246 50.180,214.382 49.581,214.437 49.375 C 214.536 49.012,214.501 49.000,213.364 49.000 C 212.019 49.000,210.476 48.706,208.598 48.093 C 207.880 47.859,206.852 47.596,206.314 47.510 C 205.592 47.393,205.085 47.174,204.390 46.676 C 203.871 46.304,203.289 45.998,203.098 45.996 C 202.907 45.994,202.300 45.807,201.750 45.580 C 201.200 45.354,200.576 45.168,200.364 45.167 C 200.152 45.167,199.838 45.092,199.667 45.000 C 199.419 44.868,199.335 44.900,199.253 45.158 C 198.931 46.172,196.924 45.665,196.726 44.520 C 196.426 42.788,193.069 41.326,191.759 42.356 M198.998 44.415 C 199.112 44.551,199.272 44.621,199.355 44.570 C 199.568 44.438,199.364 44.167,199.053 44.167 C 198.841 44.167,198.831 44.213,198.998 44.415 M256.667 44.943 C 256.254 45.268,255.778 45.633,255.608 45.754 C 255.329 45.951,255.320 46.035,255.514 46.611 C 255.633 46.963,255.735 48.031,255.740 48.985 C 255.751 50.930,255.886 51.149,256.603 50.388 C 257.575 49.356,257.988 47.584,257.758 45.437 C 257.621 44.158,257.646 44.169,256.667 44.943 M218.233 47.987 L 217.550 48.299 217.534 52.941 C 217.525 55.494,217.468 58.202,217.406 58.958 C 217.249 60.879,218.205 60.748,219.759 58.637 C 221.108 56.804,221.222 56.297,221.297 51.825 L 221.363 47.899 220.723 47.880 C 220.371 47.869,219.821 47.819,219.500 47.768 C 219.116 47.708,218.683 47.782,218.233 47.987 M190.884 48.989 C 191.452 49.076,192.967 49.233,194.250 49.338 C 198.540 49.688,199.485 50.797,196.514 51.994 C 194.414 52.841,194.000 53.456,194.000 55.733 C 194.000 57.708,193.819 57.899,192.573 57.236 C 188.426 55.031,186.113 49.685,188.940 48.838 C 189.202 48.760,189.515 48.726,189.634 48.763 C 189.754 48.800,190.316 48.901,190.884 48.989 M242.417 51.172 C 242.050 51.347,241.596 51.493,241.408 51.496 C 241.075 51.500,241.067 51.582,241.075 54.833 C 241.080 56.666,241.137 58.166,241.203 58.166 C 242.234 58.169,244.457 53.426,244.302 51.551 C 244.238 50.777,243.535 50.636,242.417 51.172 M232.062 54.610 C 231.303 56.421,224.550 61.852,221.088 63.435 C 219.492 64.164,219.478 64.190,220.160 65.131 C 222.588 68.483,228.324 66.274,232.147 60.514 C 233.235 58.876,234.869 55.673,235.132 54.663 L 235.285 54.076 233.784 54.080 L 232.283 54.083 232.062 54.610 M207.395 58.091 C 205.383 59.651,205.084 60.619,206.642 60.535 C 207.849 60.470,208.000 60.632,208.000 61.995 C 208.000 63.911,208.389 64.024,211.194 62.928 C 212.233 62.522,213.557 62.059,214.135 61.898 C 215.349 61.561,215.631 61.231,215.294 60.538 C 214.957 59.847,213.068 59.904,211.624 60.649 C 209.760 61.610,209.159 61.001,209.694 58.687 C 210.061 57.093,209.029 56.825,207.395 58.091 M264.583 59.447 C 263.555 59.616,263.267 60.708,264.099 61.284 C 265.533 62.277,265.531 62.693,264.083 64.077 C 261.580 66.472,263.989 66.939,267.798 64.797 C 269.454 63.866,269.636 62.833,268.144 62.833 C 266.630 62.833,266.399 62.502,267.081 61.309 C 267.911 59.857,266.860 59.074,264.583 59.447 M6.927 75.042 C 7.346 76.397,8.645 79.433,9.264 80.507 C 9.669 81.208,10.000 81.837,10.000 81.903 C 10.000 82.249,12.340 85.288,13.668 86.667 C 14.507 87.537,15.721 88.827,16.366 89.533 C 17.116 90.352,17.710 90.853,18.013 90.919 C 18.468 91.020,18.842 91.382,19.917 92.767 C 20.848 93.967,21.287 94.771,21.887 96.372 C 22.518 98.057,23.625 100.763,24.176 101.967 C 24.710 103.134,26.810 103.942,27.295 103.167 C 27.409 102.983,27.640 102.833,27.808 102.833 C 28.174 102.833,34.463 106.072,34.869 106.470 C 35.257 106.849,35.915 110.116,36.454 114.333 C 36.506 114.746,36.726 115.344,36.941 115.664 C 37.157 115.983,37.333 116.333,37.333 116.442 C 37.333 116.789,37.909 117.665,38.138 117.666 C 38.293 117.666,38.344 117.868,38.310 118.339 C 38.272 118.866,38.352 119.109,38.678 119.464 C 38.907 119.713,39.391 120.292,39.753 120.750 C 40.594 121.813,42.723 123.957,43.567 124.591 C 44.237 125.093,44.823 126.121,44.830 126.803 C 44.846 128.477,46.680 130.792,48.778 131.785 C 49.474 132.114,49.711 132.338,49.989 132.931 L 50.335 133.667 51.256 133.667 C 52.264 133.667,53.113 133.949,53.498 134.414 C 53.634 134.578,54.080 134.856,54.489 135.031 C 54.898 135.207,55.583 135.677,56.010 136.076 C 56.437 136.476,57.096 136.960,57.474 137.153 C 57.852 137.346,58.292 137.703,58.450 137.945 C 58.609 138.187,59.154 138.709,59.661 139.105 C 60.168 139.501,60.883 140.244,61.250 140.758 C 61.802 141.531,62.086 141.760,62.905 142.089 C 63.518 142.336,64.214 142.799,64.738 143.309 C 65.203 143.761,65.823 144.252,66.116 144.399 C 66.410 144.546,66.847 144.925,67.088 145.241 C 67.329 145.558,67.915 146.038,68.388 146.309 C 68.862 146.580,69.660 147.222,70.161 147.734 L 71.072 148.667 235.145 148.667 L 399.218 148.667 399.116 146.625 C 399.060 145.502,398.862 140.871,398.676 136.333 C 398.490 131.796,398.227 126.583,398.091 124.750 C 397.955 122.917,397.802 119.579,397.752 117.333 C 397.519 106.901,396.830 79.800,396.736 77.375 L 396.631 74.667 201.721 74.667 L 6.811 74.667 6.927 75.042 M201.511 97.250 C 201.971 98.717,202.783 101.229,203.317 102.833 C 203.851 104.438,204.459 106.331,204.668 107.042 L 205.049 108.333 213.122 108.333 C 217.871 108.333,221.172 108.395,221.139 108.484 C 221.108 108.567,220.333 109.179,219.417 109.844 C 218.500 110.509,217.225 111.444,216.583 111.921 C 215.942 112.399,214.029 113.785,212.333 115.001 C 208.646 117.646,208.354 117.871,208.343 118.074 C 208.337 118.161,209.427 121.598,210.763 125.713 C 212.100 129.829,213.162 133.227,213.123 133.266 C 213.084 133.304,212.262 132.754,211.295 132.043 C 207.298 129.103,200.095 123.918,200.036 123.939 C 199.980 123.959,198.296 125.178,191.917 129.814 C 191.092 130.413,189.674 131.452,188.767 132.121 C 187.859 132.791,187.083 133.305,187.041 133.264 C 187.000 133.222,187.754 130.764,188.718 127.802 C 191.890 118.055,191.904 118.007,191.553 117.733 C 191.387 117.602,189.938 116.546,188.333 115.386 C 186.729 114.226,184.742 112.777,183.917 112.166 C 183.092 111.555,181.599 110.461,180.599 109.736 L 178.782 108.417 186.955 108.373 L 195.128 108.330 195.318 107.576 C 195.489 106.898,196.802 102.819,199.201 95.515 L 200.045 92.948 200.361 93.765 C 200.535 94.215,201.052 95.783,201.511 97.250 " stroke="none" fill="#fbfbfb" fill-rule="evenodd"></path><path id="path3" d="M282.379 42.333 C 282.379 42.746,282.411 42.915,282.451 42.708 C 282.491 42.502,282.491 42.165,282.451 41.958 C 282.411 41.752,282.379 41.921,282.379 42.333 M263.731 44.250 C 263.732 45.442,263.758 45.907,263.790 45.285 C 263.823 44.662,263.822 43.687,263.790 43.118 C 263.757 42.549,263.731 43.058,263.731 44.250 M199.224 44.757 C 199.170 44.899,199.172 45.061,199.229 45.118 C 199.287 45.175,199.333 45.130,199.333 45.018 C 199.333 44.906,199.407 44.859,199.498 44.915 C 199.593 44.974,199.621 44.907,199.564 44.759 C 199.438 44.432,199.349 44.432,199.224 44.757 M278.712 46.833 C 278.712 47.246,278.745 47.415,278.784 47.208 C 278.824 47.002,278.824 46.665,278.784 46.458 C 278.745 46.252,278.712 46.421,278.712 46.833 M268.045 48.500 C 268.045 48.913,268.078 49.081,268.118 48.875 C 268.157 48.669,268.157 48.331,268.118 48.125 C 268.078 47.919,268.045 48.087,268.045 48.500 M221.400 51.250 C 221.400 52.625,221.426 53.165,221.457 52.451 C 221.489 51.736,221.488 50.611,221.457 49.951 C 221.425 49.290,221.400 49.875,221.400 51.250 M278.885 49.750 C 278.886 50.300,278.917 50.505,278.954 50.205 C 278.991 49.906,278.990 49.456,278.952 49.205 C 278.914 48.955,278.884 49.200,278.885 49.750 M263.723 51.500 C 263.723 52.188,263.752 52.469,263.788 52.125 C 263.824 51.781,263.824 51.219,263.788 50.875 C 263.752 50.531,263.723 50.813,263.723 51.500 M217.550 52.000 C 217.550 52.504,217.581 52.710,217.619 52.458 C 217.658 52.206,217.658 51.794,217.619 51.542 C 217.581 51.290,217.550 51.496,217.550 52.000 M279.050 53.500 C 279.050 54.004,279.081 54.210,279.119 53.958 C 279.158 53.706,279.158 53.294,279.119 53.042 C 279.081 52.790,279.050 52.996,279.050 53.500 M241.065 55.250 C 241.065 56.442,241.092 56.907,241.124 56.285 C 241.156 55.662,241.156 54.687,241.123 54.118 C 241.091 53.549,241.064 54.058,241.065 55.250 M193.879 55.000 C 193.879 55.413,193.911 55.581,193.951 55.375 C 193.991 55.169,193.991 54.831,193.951 54.625 C 193.911 54.419,193.879 54.587,193.879 55.000 M167.958 55.784 C 168.165 55.824,168.502 55.824,168.708 55.784 C 168.915 55.745,168.746 55.712,168.333 55.712 C 167.921 55.712,167.752 55.745,167.958 55.784 M178.575 56.542 L 177.917 57.250 178.625 56.591 C 179.284 55.978,179.410 55.833,179.284 55.833 C 179.257 55.833,178.938 56.152,178.575 56.542 M252.000 57.219 C 252.000 57.248,252.244 57.491,252.542 57.760 L 253.083 58.250 252.594 57.708 C 252.138 57.203,252.000 57.090,252.000 57.219 M155.994 61.958 L 155.083 62.917 156.042 62.006 C 156.569 61.505,157.000 61.073,157.000 61.047 C 157.000 60.924,156.841 61.068,155.994 61.958 M229.833 63.417 C 229.428 63.829,229.135 64.167,229.181 64.167 C 229.226 64.167,229.595 63.829,230.000 63.417 C 230.405 63.004,230.699 62.667,230.653 62.667 C 230.607 62.667,230.238 63.004,229.833 63.417 M279.077 63.708 L 278.250 64.583 279.125 63.756 C 279.606 63.301,280.000 62.908,280.000 62.881 C 280.000 62.757,279.846 62.895,279.077 63.708 M104.305 74.625 C 157.961 74.648,245.711 74.648,299.305 74.625 C 352.900 74.602,309.000 74.583,201.750 74.583 C 94.500 74.583,50.650 74.602,104.305 74.625 M396.724 76.083 C 396.724 76.817,396.754 77.096,396.789 76.704 C 396.824 76.312,396.824 75.712,396.788 75.371 C 396.752 75.029,396.723 75.350,396.724 76.083 M396.889 82.667 C 396.889 83.354,396.919 83.635,396.955 83.292 C 396.991 82.948,396.991 82.385,396.955 82.042 C 396.919 81.698,396.889 81.979,396.889 82.667 M12.583 85.667 C 12.941 86.033,13.272 86.333,13.318 86.333 C 13.363 86.333,13.108 86.033,12.750 85.667 C 12.392 85.300,12.062 85.000,12.016 85.000 C 11.970 85.000,12.225 85.300,12.583 85.667 M397.055 89.250 C 397.055 89.892,397.086 90.134,397.122 89.788 C 397.158 89.442,397.157 88.917,397.120 88.621 C 397.083 88.325,397.054 88.608,397.055 89.250 M397.221 95.917 C 397.222 96.558,397.252 96.800,397.288 96.455 C 397.324 96.109,397.324 95.584,397.287 95.288 C 397.250 94.992,397.221 95.275,397.221 95.917 M397.385 102.417 C 397.386 102.967,397.417 103.172,397.454 102.872 C 397.491 102.572,397.490 102.122,397.452 101.872 C 397.414 101.622,397.384 101.867,397.385 102.417 M397.550 109.000 C 397.550 109.504,397.581 109.710,397.619 109.458 C 397.658 109.206,397.658 108.794,397.619 108.542 C 397.581 108.290,397.550 108.496,397.550 109.000 M183.386 108.458 C 185.570 108.485,189.095 108.485,191.220 108.458 C 193.345 108.432,191.558 108.410,187.250 108.410 C 182.942 108.410,181.203 108.432,183.386 108.458 M209.053 108.458 C 211.237 108.485,214.762 108.485,216.886 108.458 C 219.011 108.432,217.225 108.410,212.917 108.410 C 208.608 108.410,206.870 108.432,209.053 108.458 M397.720 115.667 C 397.720 116.263,397.750 116.506,397.787 116.208 C 397.824 115.910,397.824 115.423,397.787 115.125 C 397.750 114.827,397.720 115.071,397.720 115.667 M397.881 122.083 C 397.882 122.542,397.915 122.709,397.953 122.456 C 397.991 122.203,397.990 121.828,397.951 121.623 C 397.911 121.418,397.880 121.625,397.881 122.083 M398.214 125.750 C 398.216 126.208,398.248 126.376,398.286 126.123 C 398.325 125.869,398.324 125.494,398.284 125.289 C 398.244 125.084,398.213 125.292,398.214 125.750 M398.388 129.750 C 398.389 130.392,398.419 130.634,398.455 130.288 C 398.491 129.942,398.490 129.417,398.454 129.121 C 398.417 128.825,398.387 129.108,398.388 129.750 M398.553 133.667 C 398.553 134.262,398.584 134.506,398.621 134.208 C 398.658 133.910,398.658 133.423,398.621 133.125 C 398.584 132.827,398.553 133.071,398.553 133.667 M398.718 137.750 C 398.719 138.300,398.750 138.505,398.787 138.205 C 398.825 137.906,398.824 137.456,398.786 137.205 C 398.748 136.955,398.717 137.200,398.718 137.750 M398.883 141.500 C 398.883 142.004,398.915 142.210,398.953 141.958 C 398.991 141.706,398.991 141.294,398.953 141.042 C 398.915 140.790,398.883 140.996,398.883 141.500 M64.493 143.208 C 65.184 143.944,65.333 144.077,65.333 143.951 C 65.333 143.925,64.977 143.568,64.542 143.160 L 63.750 142.417 64.493 143.208 M399.048 145.083 C 399.049 145.542,399.081 145.709,399.120 145.456 C 399.158 145.203,399.157 144.828,399.117 144.623 C 399.078 144.418,399.046 144.625,399.048 145.083 " stroke="none" fill="#8fba9c" fill-rule="evenodd"></path><path id="path4" d="M263.158 40.593 C 263.595 40.676,263.656 40.764,263.713 41.385 L 263.777 42.083 263.764 41.333 C 263.750 40.610,263.731 40.582,263.208 40.542 C 262.690 40.502,262.688 40.504,263.158 40.593 M282.375 41.083 C 282.377 41.450,282.411 41.580,282.451 41.373 C 282.491 41.166,282.490 40.866,282.448 40.706 C 282.406 40.547,282.374 40.717,282.375 41.083 M278.372 43.500 C 278.372 43.821,278.406 43.952,278.448 43.792 C 278.490 43.631,278.490 43.369,278.448 43.208 C 278.406 43.048,278.372 43.179,278.372 43.500 M278.545 45.500 C 278.545 45.913,278.578 46.081,278.618 45.875 C 278.657 45.669,278.657 45.331,278.618 45.125 C 278.578 44.919,278.545 45.087,278.545 45.500 M263.900 48.333 C 263.900 49.754,263.926 50.335,263.957 49.625 C 263.988 48.915,263.988 47.752,263.957 47.042 C 263.926 46.331,263.900 46.913,263.900 48.333 M278.714 48.250 C 278.716 48.708,278.748 48.876,278.786 48.623 C 278.825 48.369,278.824 47.994,278.784 47.789 C 278.744 47.584,278.713 47.792,278.714 48.250 M221.372 48.333 C 221.372 48.654,221.406 48.785,221.448 48.625 C 221.490 48.465,221.490 48.202,221.448 48.042 C 221.406 47.881,221.372 48.012,221.372 48.333 M255.548 49.750 C 255.549 50.208,255.581 50.376,255.620 50.123 C 255.658 49.869,255.657 49.494,255.617 49.289 C 255.578 49.084,255.546 49.292,255.548 49.750 M268.048 49.917 C 268.049 50.375,268.081 50.543,268.120 50.289 C 268.158 50.036,268.157 49.661,268.117 49.456 C 268.078 49.251,268.046 49.458,268.048 49.917 M243.294 50.785 C 243.501 50.824,243.801 50.823,243.960 50.781 C 244.120 50.739,243.950 50.707,243.583 50.709 C 243.217 50.711,243.086 50.745,243.294 50.785 M278.887 51.667 C 278.887 52.262,278.917 52.506,278.954 52.208 C 278.991 51.910,278.991 51.423,278.954 51.125 C 278.917 50.827,278.887 51.071,278.887 51.667 M244.379 51.500 C 244.379 51.913,244.411 52.081,244.451 51.875 C 244.491 51.669,244.491 51.331,244.451 51.125 C 244.411 50.919,244.379 51.087,244.379 51.500 M240.881 52.250 C 240.882 52.708,240.915 52.876,240.953 52.623 C 240.991 52.369,240.990 51.994,240.951 51.789 C 240.911 51.584,240.880 51.792,240.881 52.250 M278.375 52.083 C 278.377 52.450,278.411 52.580,278.451 52.373 C 278.491 52.166,278.490 51.866,278.448 51.706 C 278.406 51.547,278.374 51.717,278.375 52.083 M238.887 53.333 C 238.887 53.929,238.917 54.173,238.954 53.875 C 238.991 53.577,238.991 53.090,238.954 52.792 C 238.917 52.494,238.887 52.737,238.887 53.333 M263.709 53.250 C 263.711 53.617,263.745 53.747,263.785 53.540 C 263.824 53.332,263.823 53.032,263.781 52.873 C 263.739 52.714,263.707 52.883,263.709 53.250 M278.372 54.000 C 278.372 54.321,278.406 54.452,278.448 54.292 C 278.490 54.131,278.490 53.869,278.448 53.708 C 278.406 53.548,278.372 53.679,278.372 54.000 M221.381 54.417 C 221.382 54.875,221.415 55.043,221.453 54.789 C 221.491 54.536,221.490 54.161,221.451 53.956 C 221.411 53.751,221.380 53.958,221.381 54.417 M179.242 55.708 L 178.583 56.417 179.292 55.758 C 179.681 55.395,180.000 55.077,180.000 55.050 C 180.000 54.923,179.855 55.050,179.242 55.708 M231.075 55.708 L 230.417 56.417 231.125 55.758 C 231.515 55.395,231.833 55.077,231.833 55.050 C 231.833 54.923,231.688 55.050,231.075 55.708 M171.167 55.398 C 171.167 55.433,171.388 55.495,171.658 55.534 C 171.928 55.574,172.111 55.545,172.065 55.470 C 171.982 55.336,171.167 55.271,171.167 55.398 M169.128 55.621 C 169.428 55.658,169.878 55.657,170.128 55.619 C 170.378 55.581,170.133 55.551,169.583 55.552 C 169.033 55.553,168.828 55.584,169.128 55.621 M237.053 56.500 C 237.053 57.096,237.084 57.340,237.121 57.042 C 237.158 56.744,237.158 56.256,237.121 55.958 C 237.084 55.660,237.053 55.904,237.053 56.500 M193.881 56.417 C 193.882 56.875,193.915 57.043,193.953 56.789 C 193.991 56.536,193.990 56.161,193.951 55.956 C 193.911 55.751,193.880 55.958,193.881 56.417 M217.381 57.250 C 217.382 57.708,217.415 57.876,217.453 57.623 C 217.491 57.369,217.490 56.994,217.451 56.789 C 217.411 56.584,217.380 56.792,217.381 57.250 M229.406 57.375 L 228.917 57.917 229.458 57.427 C 229.756 57.158,230.000 56.914,230.000 56.885 C 230.000 56.757,229.862 56.870,229.406 57.375 M187.993 59.375 C 188.684 60.111,188.833 60.243,188.833 60.118 C 188.833 60.091,188.477 59.735,188.042 59.326 L 187.250 58.583 187.993 59.375 M219.073 59.542 L 218.583 60.083 219.125 59.594 C 219.630 59.138,219.743 59.000,219.615 59.000 C 219.586 59.000,219.342 59.244,219.073 59.542 M214.042 59.948 C 214.202 59.990,214.465 59.990,214.625 59.948 C 214.785 59.906,214.654 59.872,214.333 59.872 C 214.012 59.872,213.881 59.906,214.042 59.948 M180.167 61.250 C 179.484 61.938,178.963 62.500,179.008 62.500 C 179.054 62.500,179.650 61.938,180.333 61.250 C 181.016 60.563,181.537 60.000,181.492 60.000 C 181.446 60.000,180.850 60.563,180.167 61.250 M257.208 60.448 C 257.369 60.490,257.631 60.490,257.792 60.448 C 257.952 60.406,257.821 60.372,257.500 60.372 C 257.179 60.372,257.048 60.406,257.208 60.448 M170.627 60.951 C 170.834 60.991,171.134 60.990,171.294 60.948 C 171.453 60.906,171.283 60.874,170.917 60.875 C 170.550 60.877,170.420 60.911,170.627 60.951 M239.500 63.885 C 239.500 63.914,239.744 64.158,240.042 64.427 L 240.583 64.917 240.094 64.375 C 239.638 63.870,239.500 63.757,239.500 63.885 M150.208 65.615 C 150.369 65.657,150.631 65.657,150.792 65.615 C 150.952 65.573,150.821 65.539,150.500 65.539 C 150.179 65.539,150.048 65.573,150.208 65.615 M170.875 66.282 C 171.035 66.323,171.298 66.323,171.458 66.282 C 171.619 66.240,171.487 66.205,171.167 66.205 C 170.846 66.205,170.715 66.240,170.875 66.282 M263.794 66.285 C 264.001 66.324,264.301 66.323,264.460 66.281 C 264.620 66.239,264.450 66.207,264.083 66.209 C 263.717 66.211,263.586 66.245,263.794 66.285 M243.542 66.448 C 243.702 66.490,243.965 66.490,244.125 66.448 C 244.285 66.406,244.154 66.372,243.833 66.372 C 243.512 66.372,243.381 66.406,243.542 66.448 M396.892 80.083 C 396.892 80.908,396.920 81.267,396.955 80.880 C 396.990 80.493,396.990 79.818,396.956 79.380 C 396.922 78.942,396.893 79.258,396.892 80.083 M14.333 87.583 C 15.108 88.362,15.780 89.000,15.826 89.000 C 15.872 89.000,15.275 88.362,14.500 87.583 C 13.725 86.804,13.053 86.167,13.007 86.167 C 12.962 86.167,13.558 86.804,14.333 87.583 M397.053 87.167 C 397.053 87.763,397.084 88.006,397.121 87.708 C 397.158 87.410,397.158 86.923,397.121 86.625 C 397.084 86.327,397.053 86.571,397.053 87.167 M397.218 93.917 C 397.219 94.467,397.250 94.672,397.287 94.372 C 397.325 94.072,397.324 93.622,397.286 93.372 C 397.248 93.122,397.217 93.367,397.218 93.917 M397.385 100.583 C 397.386 101.133,397.417 101.338,397.454 101.039 C 397.491 100.739,397.490 100.289,397.452 100.039 C 397.414 99.788,397.384 100.033,397.385 100.583 M27.312 103.125 C 27.113 103.379,27.116 103.392,27.333 103.226 C 27.471 103.122,27.733 102.999,27.917 102.954 C 28.233 102.876,28.232 102.871,27.895 102.853 C 27.700 102.842,27.438 102.965,27.312 103.125 M397.552 107.250 C 397.553 107.800,397.584 108.005,397.621 107.705 C 397.658 107.406,397.657 106.956,397.619 106.705 C 397.581 106.455,397.551 106.700,397.552 107.250 M397.718 113.750 C 397.719 114.300,397.750 114.505,397.787 114.205 C 397.825 113.906,397.824 113.456,397.786 113.205 C 397.748 112.955,397.717 113.200,397.718 113.750 M397.887 120.333 C 397.887 120.929,397.917 121.173,397.954 120.875 C 397.991 120.577,397.991 120.090,397.954 119.792 C 397.917 119.494,397.887 119.737,397.887 120.333 M40.500 121.885 C 40.500 121.914,40.744 122.158,41.042 122.427 L 41.583 122.917 41.094 122.375 C 40.638 121.870,40.500 121.757,40.500 121.885 M41.833 123.219 C 41.833 123.248,42.077 123.491,42.375 123.760 L 42.917 124.250 42.427 123.708 C 41.971 123.203,41.833 123.090,41.833 123.219 M398.381 127.917 C 398.382 128.375,398.415 128.543,398.453 128.289 C 398.491 128.036,398.490 127.661,398.451 127.456 C 398.411 127.251,398.380 127.458,398.381 127.917 M398.550 131.833 C 398.550 132.337,398.581 132.544,398.619 132.292 C 398.658 132.040,398.658 131.627,398.619 131.375 C 398.581 131.123,398.550 131.329,398.550 131.833 M398.720 135.833 C 398.720 136.429,398.750 136.673,398.787 136.375 C 398.824 136.077,398.824 135.590,398.787 135.292 C 398.750 134.994,398.720 135.237,398.720 135.833 M55.917 136.167 C 56.275 136.533,56.605 136.833,56.651 136.833 C 56.697 136.833,56.441 136.533,56.083 136.167 C 55.725 135.800,55.395 135.500,55.349 135.500 C 55.303 135.500,55.559 135.800,55.917 136.167 M398.888 139.583 C 398.889 140.225,398.919 140.467,398.955 140.121 C 398.991 139.775,398.990 139.250,398.954 138.955 C 398.917 138.659,398.887 138.942,398.888 139.583 M399.055 143.250 C 399.055 143.892,399.086 144.134,399.122 143.788 C 399.158 143.442,399.157 142.917,399.120 142.621 C 399.083 142.325,399.054 142.608,399.055 143.250 M399.220 147.167 C 399.220 147.762,399.250 148.006,399.287 147.708 C 399.324 147.410,399.324 146.923,399.287 146.625 C 399.250 146.327,399.220 146.571,399.220 147.167 M70.000 147.750 C 70.498 148.254,70.943 148.667,70.989 148.667 C 71.034 148.667,70.665 148.254,70.167 147.750 C 69.669 147.246,69.224 146.833,69.178 146.833 C 69.132 146.833,69.502 147.246,70.000 147.750 " stroke="none" fill="#6aac7f" fill-rule="evenodd"></path></g></svg>